<?xml version="1.0" ?>
<svg xmlns="http://www.w3.org/2000/svg" xmlns:dc="http://purl.org/dc/elements/1.1/" xmlns:cc="http://creativecommons.org/ns#" xmlns:rdf="http://www.w3.org/1999/02/22-rdf-syntax-ns#" xmlns:svg="http://www.w3.org/2000/svg" viewBox="0.000000 0.000000 1000.000000 1000.000000" id="graph" version="1.1">
  <defs></defs>
  <g id="graph-misc">
    <g id="graph-background">
      <path style="fill:#ffffff;fill-opacity:1.000000;fill-rule:nonzero;" d=" M 0.000000 0.000000 L 1000.000000 0.000000 L 1000.000000 1000.000000 L 0.000000 1000.000000 Z"></path></g></g>
  <g id="elements">
    <g id="graph-background">
      <path style="fill:#ffffff;fill-opacity:1.000000;fill-rule:nonzero;" d=" M 0.000000 0.000000 L 1000.000000 0.000000 L 1000.000000 1000.000000 L 0.000000 1000.000000 Z"></path></g>
    <g id="egde-KnowledgeNode[inputTag=Fact[predicateName=P2,arguments=[A]],outputTags=[Fact[predicateName=P4,arguments=[A]], Fact[predicateName=P5,arguments=[A]]]]Fact[predicateName=P4,arguments=[A]]">
      <path style="stroke:#000000;stroke-width:1.000000px;" d=" M 703.131722 137.521525 L 970.000000 239.743533"></path></g>
    <g id="egde-KnowledgeNode[inputTag=Fact[predicateName=P2,arguments=[A]],outputTags=[Fact[predicateName=P4,arguments=[A]], Fact[predicateName=P5,arguments=[A]]]]Fact[predicateName=P5,arguments=[A]]">
      <path style="stroke:#000000;stroke-width:1.000000px;" d=" M 703.131722 137.521525 L 960.428644 30.000000"></path></g>
    <g id="egde-KnowledgeNode[inputTag=Fact[predicateName=P1,arguments=[A]],outputTags=[Fact[predicateName=P3,arguments=[A]], Fact[predicateName=P2,arguments=[A]]]]Fact[predicateName=P2,arguments=[A]]">
      <path style="stroke:#000000;stroke-width:1.000000px;" d=" M 332.410731 447.418938 L 492.760172 282.442750"></path></g>
    <g id="egde-KnowledgeNode[inputTag=Fact[predicateName=P3,arguments=[A]],outputTags=[Fact[predicateName=P7,arguments=[A]], Fact[predicateName=P6,arguments=[A]]]]Fact[predicateName=P7,arguments=[A]]">
      <path style="stroke:#000000;stroke-width:1.000000px;" d=" M 157.028674 803.054544 L 63.905886 970.000000"></path></g>
    <g id="egde-Fact[predicateName=P2,arguments=[A]]KnowledgeNode[inputTag=Fact[predicateName=P2,arguments=[A]],outputTags=[Fact[predicateName=P4,arguments=[A]], Fact[predicateName=P5,arguments=[A]]]]">
      <path style="stroke:#000000;stroke-width:1.000000px;" d=" M 492.760172 282.442750 L 703.131722 137.521525"></path></g>
    <g id="egde-KnowledgeNode[inputTag=Fact[predicateName=P1,arguments=[A]],outputTags=[Fact[predicateName=P3,arguments=[A]], Fact[predicateName=P2,arguments=[A]]]]Fact[predicateName=P3,arguments=[A]]">
      <path style="stroke:#000000;stroke-width:1.000000px;" d=" M 332.410731 447.418938 L 231.375904 624.828188"></path></g>
    <g id="egde-Fact[predicateName=P1,arguments=[A]]KnowledgeNode[inputTag=Fact[predicateName=P1,arguments=[A]],outputTags=[Fact[predicateName=P3,arguments=[A]], Fact[predicateName=P2,arguments=[A]]]]">
      <path style="stroke:#000000;stroke-width:1.000000px;" d=" M 30.000000 381.149157 L 332.410731 447.418938"></path></g>
    <g id="egde-KnowledgeNode[inputTag=Fact[predicateName=P3,arguments=[A]],outputTags=[Fact[predicateName=P7,arguments=[A]], Fact[predicateName=P6,arguments=[A]]]]Fact[predicateName=P6,arguments=[A]]">
      <path style="stroke:#000000;stroke-width:1.000000px;" d=" M 157.028674 803.054544 L 449.495875 881.748910"></path></g>
    <g id="egde-Fact[predicateName=P3,arguments=[A]]KnowledgeNode[inputTag=Fact[predicateName=P3,arguments=[A]],outputTags=[Fact[predicateName=P7,arguments=[A]], Fact[predicateName=P6,arguments=[A]]]]">
      <path style="stroke:#000000;stroke-width:1.000000px;" d=" M 231.375904 624.828188 L 157.028674 803.054544"></path></g>
    <g id="node-Fact[predicateName=P4,arguments=[A]]">
      <path style="fill:#b07aa1;fill-opacity:1.000000;fill-rule:nonzero;" transform="translate(970.000000,239.743533)" d=" m -25.000000 0 a 25.000000,25.000000 0 1 0 50.000000,0 25.000000,25.000000 0 1 0 -50.000000,0 z"></path></g>
    <g id="node-Fact[predicateName=P5,arguments=[A]]">
      <path style="fill:#b07aa1;fill-opacity:1.000000;fill-rule:nonzero;" transform="translate(960.428644,30.000000)" d=" m -25.000000 0 a 25.000000,25.000000 0 1 0 50.000000,0 25.000000,25.000000 0 1 0 -50.000000,0 z"></path></g>
    <g id="node-KnowledgeNode[inputTag=Fact[predicateName=P2,arguments=[A]],outputTags=[Fact[predicateName=P4,arguments=[A]], Fact[predicateName=P5,arguments=[A]]]]">
      <path style="fill:#4e79a7;fill-opacity:1.000000;fill-rule:nonzero;" transform="translate(703.131722,137.521525)" d=" m -50.000000 0 a 50.000000,50.000000 0 1 0 100.000000,0 50.000000,50.000000 0 1 0 -100.000000,0 z"></path></g>
    <g id="node-Fact[predicateName=P7,arguments=[A]]">
      <path style="fill:#e15759;fill-opacity:1.000000;fill-rule:nonzero;" transform="translate(63.905886,970.000000)" d=" m -25.000000 0 a 25.000000,25.000000 0 1 0 50.000000,0 25.000000,25.000000 0 1 0 -50.000000,0 z"></path></g>
    <g id="node-Fact[predicateName=P2,arguments=[A]]">
      <path style="fill:#e15759;fill-opacity:1.000000;fill-rule:nonzero;" transform="translate(492.760172,282.442750)" d=" m -25.000000 0 a 25.000000,25.000000 0 1 0 50.000000,0 25.000000,25.000000 0 1 0 -50.000000,0 z"></path></g>
    <g id="node-Fact[predicateName=P1,arguments=[A]]">
      <path style="fill:#e15759;fill-opacity:1.000000;fill-rule:nonzero;" transform="translate(30.000000,381.149157)" d=" m -25.000000 0 a 25.000000,25.000000 0 1 0 50.000000,0 25.000000,25.000000 0 1 0 -50.000000,0 z"></path></g>
    <g id="node-Fact[predicateName=P3,arguments=[A]]">
      <path style="fill:#e15759;fill-opacity:1.000000;fill-rule:nonzero;" transform="translate(231.375904,624.828188)" d=" m -25.000000 0 a 25.000000,25.000000 0 1 0 50.000000,0 25.000000,25.000000 0 1 0 -50.000000,0 z"></path></g>
    <g id="node-Fact[predicateName=P6,arguments=[A]]">
      <path style="fill:#e15759;fill-opacity:1.000000;fill-rule:nonzero;" transform="translate(449.495875,881.748910)" d=" m -25.000000 0 a 25.000000,25.000000 0 1 0 50.000000,0 25.000000,25.000000 0 1 0 -50.000000,0 z"></path></g>
    <g id="node-KnowledgeNode[inputTag=Fact[predicateName=P1,arguments=[A]],outputTags=[Fact[predicateName=P3,arguments=[A]], Fact[predicateName=P2,arguments=[A]]]]">
      <path style="fill:#e15759;fill-opacity:1.000000;fill-rule:nonzero;" transform="translate(332.410731,447.418938)" d=" m -50.000000 0 a 50.000000,50.000000 0 1 0 100.000000,0 50.000000,50.000000 0 1 0 -100.000000,0 z"></path></g>
    <g id="node-KnowledgeNode[inputTag=Fact[predicateName=P3,arguments=[A]],outputTags=[Fact[predicateName=P7,arguments=[A]], Fact[predicateName=P6,arguments=[A]]]]">
      <path style="fill:#e15759;fill-opacity:1.000000;fill-rule:nonzero;" transform="translate(157.028674,803.054544)" d=" m -50.000000 0 a 50.000000,50.000000 0 1 0 100.000000,0 50.000000,50.000000 0 1 0 -100.000000,0 z"></path></g></g></svg>