<?xml version="1.0" encoding="UTF-8" standalone="no"?>
<svg
   xmlns:dc="http://purl.org/dc/elements/1.1/"
   xmlns:cc="http://creativecommons.org/ns#"
   xmlns:rdf="http://www.w3.org/1999/02/22-rdf-syntax-ns#"
   xmlns:svg="http://www.w3.org/2000/svg"
   xmlns="http://www.w3.org/2000/svg"
   xmlns:sodipodi="http://sodipodi.sourceforge.net/DTD/sodipodi-0.dtd"
   xmlns:inkscape="http://www.inkscape.org/namespaces/inkscape"
   viewBox="0.000000 0.000000 1000.000000 1000.000000"
   id="graph"
   version="1.1"
   sodipodi:docname="knn_simple_graph.svg"
   inkscape:version="0.92.1 r15371">
  <metadata
     id="metadata73">
    <rdf:RDF>
      <cc:Work
         rdf:about="">
        <dc:format>image/svg+xml</dc:format>
        <dc:type
           rdf:resource="http://purl.org/dc/dcmitype/StillImage" />
        <dc:title></dc:title>
      </cc:Work>
    </rdf:RDF>
  </metadata>
  <sodipodi:namedview
     pagecolor="#ffffff"
     bordercolor="#666666"
     borderopacity="1"
     objecttolerance="10"
     gridtolerance="10"
     guidetolerance="10"
     inkscape:pageopacity="0"
     inkscape:pageshadow="2"
     inkscape:window-width="1920"
     inkscape:window-height="1027"
     id="namedview71"
     showgrid="false"
     inkscape:zoom="0.6675088"
     inkscape:cx="414.39402"
     inkscape:cy="521.81096"
     inkscape:window-x="1272"
     inkscape:window-y="-8"
     inkscape:window-maximized="1"
     inkscape:current-layer="elements" />
  <defs
     id="defs2">
    <marker
       inkscape:stockid="Arrow2Lend"
       orient="auto"
       refY="0.0"
       refX="0.0"
       id="marker6350"
       style="overflow:visible;"
       inkscape:isstock="true">
      <path
         id="path6348"
         style="fill-rule:evenodd;stroke-width:0.625;stroke-linejoin:round;stroke:#000000;stroke-opacity:1;fill:#000000;fill-opacity:1"
         d="M 8.7185878,4.0337352 L -2.2072895,0.016013256 L 8.7185884,-4.0017078 C 6.9730900,-1.6296469 6.9831476,1.6157441 8.7185878,4.0337352 z "
         transform="scale(1.1) rotate(180) translate(1,0)" />
    </marker>
    <marker
       inkscape:stockid="Arrow2Lend"
       orient="auto"
       refY="0.0"
       refX="0.0"
       id="marker6130"
       style="overflow:visible;"
       inkscape:isstock="true">
      <path
         id="path6128"
         style="fill-rule:evenodd;stroke-width:0.625;stroke-linejoin:round;stroke:#000000;stroke-opacity:1;fill:#000000;fill-opacity:1"
         d="M 8.7185878,4.0337352 L -2.2072895,0.016013256 L 8.7185884,-4.0017078 C 6.9730900,-1.6296469 6.9831476,1.6157441 8.7185878,4.0337352 z "
         transform="scale(1.1) rotate(180) translate(1,0)" />
    </marker>
    <marker
       inkscape:stockid="Arrow2Lend"
       orient="auto"
       refY="0.0"
       refX="0.0"
       id="marker5868"
       style="overflow:visible;"
       inkscape:isstock="true">
      <path
         id="path5866"
         style="fill-rule:evenodd;stroke-width:0.625;stroke-linejoin:round;stroke:#000000;stroke-opacity:1;fill:#000000;fill-opacity:1"
         d="M 8.7185878,4.0337352 L -2.2072895,0.016013256 L 8.7185884,-4.0017078 C 6.9730900,-1.6296469 6.9831476,1.6157441 8.7185878,4.0337352 z "
         transform="scale(1.1) rotate(180) translate(1,0)" />
    </marker>
    <marker
       inkscape:stockid="Arrow2Lend"
       orient="auto"
       refY="0.0"
       refX="0.0"
       id="marker5762"
       style="overflow:visible;"
       inkscape:isstock="true">
      <path
         id="path5760"
         style="fill-rule:evenodd;stroke-width:0.625;stroke-linejoin:round;stroke:#000000;stroke-opacity:1;fill:#000000;fill-opacity:1"
         d="M 8.7185878,4.0337352 L -2.2072895,0.016013256 L 8.7185884,-4.0017078 C 6.9730900,-1.6296469 6.9831476,1.6157441 8.7185878,4.0337352 z "
         transform="scale(1.1) rotate(180) translate(1,0)" />
    </marker>
    <marker
       inkscape:stockid="Arrow2Lend"
       orient="auto"
       refY="0.0"
       refX="0.0"
       id="marker5704"
       style="overflow:visible;"
       inkscape:isstock="true">
      <path
         id="path5702"
         style="fill-rule:evenodd;stroke-width:0.625;stroke-linejoin:round;stroke:#000000;stroke-opacity:1;fill:#000000;fill-opacity:1"
         d="M 8.7185878,4.0337352 L -2.2072895,0.016013256 L 8.7185884,-4.0017078 C 6.9730900,-1.6296469 6.9831476,1.6157441 8.7185878,4.0337352 z "
         transform="scale(1.1) rotate(180) translate(1,0)" />
    </marker>
    <marker
       inkscape:stockid="Arrow2Lend"
       orient="auto"
       refY="0.0"
       refX="0.0"
       id="marker5574"
       style="overflow:visible;"
       inkscape:isstock="true">
      <path
         id="path5572"
         style="fill-rule:evenodd;stroke-width:0.625;stroke-linejoin:round;stroke:#000000;stroke-opacity:1;fill:#000000;fill-opacity:1"
         d="M 8.7185878,4.0337352 L -2.2072895,0.016013256 L 8.7185884,-4.0017078 C 6.9730900,-1.6296469 6.9831476,1.6157441 8.7185878,4.0337352 z "
         transform="scale(1.1) rotate(180) translate(1,0)" />
    </marker>
    <marker
       inkscape:stockid="Arrow2Lend"
       orient="auto"
       refY="0.0"
       refX="0.0"
       id="marker5384"
       style="overflow:visible;"
       inkscape:isstock="true">
      <path
         id="path5382"
         style="fill-rule:evenodd;stroke-width:0.625;stroke-linejoin:round;stroke:#000000;stroke-opacity:1;fill:#000000;fill-opacity:1"
         d="M 8.7185878,4.0337352 L -2.2072895,0.016013256 L 8.7185884,-4.0017078 C 6.9730900,-1.6296469 6.9831476,1.6157441 8.7185878,4.0337352 z "
         transform="scale(1.1) rotate(180) translate(1,0)" />
    </marker>
    <marker
       inkscape:stockid="Arrow2Lend"
       orient="auto"
       refY="0.0"
       refX="0.0"
       id="marker5240"
       style="overflow:visible;"
       inkscape:isstock="true">
      <path
         id="path5238"
         style="fill-rule:evenodd;stroke-width:0.625;stroke-linejoin:round;stroke:#000000;stroke-opacity:1;fill:#000000;fill-opacity:1"
         d="M 8.7185878,4.0337352 L -2.2072895,0.016013256 L 8.7185884,-4.0017078 C 6.9730900,-1.6296469 6.9831476,1.6157441 8.7185878,4.0337352 z "
         transform="scale(1.1) rotate(180) translate(1,0)" />
    </marker>
    <marker
       inkscape:stockid="Arrow2Lend"
       orient="auto"
       refY="0.0"
       refX="0.0"
       id="Arrow2Lend"
       style="overflow:visible;"
       inkscape:isstock="true">
      <path
         id="path4571"
         style="fill-rule:evenodd;stroke-width:0.625;stroke-linejoin:round;stroke:#000000;stroke-opacity:1;fill:#000000;fill-opacity:1"
         d="M 8.7185878,4.0337352 L -2.2072895,0.016013256 L 8.7185884,-4.0017078 C 6.9730900,-1.6296469 6.9831476,1.6157441 8.7185878,4.0337352 z "
         transform="scale(1.1) rotate(180) translate(1,0)" />
    </marker>
  </defs>
  <g
     id="graph-misc">
    <g
       id="graph-background">
      <path
         style="fill:#ffffff;fill-opacity:1.000000;fill-rule:nonzero;"
         d=" M 0.000000 0.000000 L 1000.000000 0.000000 L 1000.000000 1000.000000 L 0.000000 1000.000000 Z"
         id="path4" />
    </g>
  </g>
  <g
     id="elements">
    <g
       id="g10">
      <path
         style="fill:#ffffff;fill-opacity:1.000000;fill-rule:nonzero;"
         d=" M 0.000000 0.000000 L 1000.000000 0.000000 L 1000.000000 1000.000000 L 0.000000 1000.000000 Z"
         id="path8" />
    </g>
    <g
       id="egde-KnowledgeNode[inputTag=Fact[predicateName=P2,arguments=[A]],outputTags=[Fact[predicateName=P4,arguments=[A]], Fact[predicateName=P5,arguments=[A]]]]Fact[predicateName=P4,arguments=[A]]"
       transform="matrix(0.99927775,0,0,1.0000102,0.47261568,-0.00102572)">
      <path
         style="stroke:#000000;stroke-width:2;stroke-miterlimit:4;stroke-dasharray:none;marker-end:url(#marker5762)"
         d="M 654.0618,156.70036 846.6623,45.510737"
         id="path12"
         inkscape:connector-curvature="0"
         sodipodi:nodetypes="cc" />
    </g>
    <g
       id="egde-KnowledgeNode[inputTag=Fact[predicateName=P2,arguments=[A]],outputTags=[Fact[predicateName=P4,arguments=[A]], Fact[predicateName=P5,arguments=[A]]]]Fact[predicateName=P5,arguments=[A]]"
       transform="matrix(1.0003456,0,0,0.99973968,-0.22667008,0.04121357)">
      <path
         style="stroke:#000000;stroke-width:2;stroke-miterlimit:4;stroke-dasharray:none;marker-end:url(#marker5868)"
         d="m 654.0618,156.70036 287.73765,63.09226"
         id="path15"
         inkscape:connector-curvature="0"
         sodipodi:nodetypes="cc" />
    </g>
    <g
       id="egde-KnowledgeNode[inputTag=Fact[predicateName=P1,arguments=[A]],outputTags=[Fact[predicateName=P3,arguments=[A]], Fact[predicateName=P2,arguments=[A]]]]Fact[predicateName=P2,arguments=[A]]"
       transform="matrix(0.99941598,0,0,1.0000067,0.20920061,-0.0026716)">
      <path
         style="stroke:#000000;stroke-width:2;stroke-miterlimit:4;stroke-dasharray:none;marker-end:url(#marker5574)"
         d="M 358.16828,470.81025 470.07872,330.61119"
         id="path18"
         inkscape:connector-curvature="0"
         sodipodi:nodetypes="cc" />
    </g>
    <g
       id="egde-KnowledgeNode[inputTag=Fact[predicateName=P3,arguments=[A]],outputTags=[Fact[predicateName=P7,arguments=[A]], Fact[predicateName=P6,arguments=[A]]]]Fact[predicateName=P7,arguments=[A]]">
      <path
         style="stroke:#000000;stroke-width:2;stroke-miterlimit:4;stroke-dasharray:none;marker-end:url(#marker6350)"
         d="m 231.47365,808.66676 299.35993,49.73291"
         id="path21"
         inkscape:connector-curvature="0"
         sodipodi:nodetypes="cc" />
    </g>
    <g
       id="egde-Fact[predicateName=P2,arguments=[A]]KnowledgeNode[inputTag=Fact[predicateName=P2,arguments=[A]],outputTags=[Fact[predicateName=P4,arguments=[A]], Fact[predicateName=P5,arguments=[A]]]]"
       transform="matrix(0.99785426,0,0,0.99842709,1.0457726,0.48708487)">
      <path
         style="stroke:#000000;stroke-width:2;stroke-miterlimit:4;stroke-dasharray:none;marker-end:url(#marker5704)"
         d="M 487.82236,308.63026 615.86006,193.404"
         id="path24"
         inkscape:connector-curvature="0"
         sodipodi:nodetypes="cc" />
    </g>
    <g
       id="egde-KnowledgeNode[inputTag=Fact[predicateName=P1,arguments=[A]],outputTags=[Fact[predicateName=P3,arguments=[A]], Fact[predicateName=P2,arguments=[A]]]]Fact[predicateName=P3,arguments=[A]]"
       transform="matrix(0.99744382,0,0,0.98962117,0.92390927,4.8879637)">
      <path
         style="stroke:#000000;stroke-width:2;stroke-miterlimit:4;stroke-dasharray:none;marker-end:url(#marker5240)"
         d="m 358.16828,470.81025 -70.2386,144.35527"
         id="path27"
         inkscape:connector-curvature="0"
         sodipodi:nodetypes="cc" />
    </g>
    <g
       id="egde-Fact[predicateName=P1,arguments=[A]]KnowledgeNode[inputTag=Fact[predicateName=P1,arguments=[A]],outputTags=[Fact[predicateName=P3,arguments=[A]], Fact[predicateName=P2,arguments=[A]]]]"
       transform="matrix(0.9912086,-0.00263273,0.00259259,1.0065543,-0.87169529,-2.3263362)">
      <path
         style="stroke:#000000;stroke-width:2;stroke-miterlimit:4;stroke-dasharray:none;marker-end:url(#Arrow2Lend)"
         d="m 30,421.10621 277.79375,42.2135"
         id="path30"
         inkscape:connector-curvature="0"
         sodipodi:nodetypes="cc" />
    </g>
    <g
       id="egde-KnowledgeNode[inputTag=Fact[predicateName=P3,arguments=[A]],outputTags=[Fact[predicateName=P7,arguments=[A]], Fact[predicateName=P6,arguments=[A]]]]Fact[predicateName=P6,arguments=[A]]"
       transform="matrix(1.0212665,0,0,0.99761865,-4.9197811,1.9481268)">
      <path
         style="stroke:#000000;stroke-width:2;stroke-miterlimit:4;stroke-dasharray:none;marker-end:url(#marker6130)"
         d="M 231.47365,808.66676 194.01969,942.45763"
         id="path33"
         inkscape:connector-curvature="0"
         sodipodi:nodetypes="cc" />
    </g>
    <g
       id="egde-Fact[predicateName=P3,arguments=[A]]KnowledgeNode[inputTag=Fact[predicateName=P3,arguments=[A]],outputTags=[Fact[predicateName=P7,arguments=[A]], Fact[predicateName=P6,arguments=[A]]]]"
       transform="matrix(1.0347301,0,0,0.98788252,-9.5995465,7.7933964)">
      <path
         style="stroke:#000000;stroke-width:2;stroke-miterlimit:4;stroke-dasharray:none;marker-end:url(#marker5384)"
         d="M 276.8068,639.52993 245.24483,758.34897"
         id="path36"
         inkscape:connector-curvature="0"
         sodipodi:nodetypes="cc" />
    </g>
    <g
       id="node-Fact[predicateName=P7,arguments=[A]]">
      <path
         style="fill:#e15759;fill-opacity:1.000000;fill-rule:nonzero;"
         transform="translate(559.276372,859.988656)"
         d=" m -25.000000 0 a 25.000000,25.000000 0 1 0 50.000000,0 25.000000,25.000000 0 1 0 -50.000000,0 z"
         id="path39" />
    </g>
    <g
       id="node-KnowledgeNode[inputTag=Fact[predicateName=P1,arguments=[A]],outputTags=[Fact[predicateName=P3,arguments=[A]], Fact[predicateName=P2,arguments=[A]]]]">
      <path
         style="fill:#4e79a7;fill-opacity:1.000000;fill-rule:nonzero;"
         transform="translate(358.168278,470.810249)"
         d=" m -50.000000 0 a 50.000000,50.000000 0 1 0 100.000000,0 50.000000,50.000000 0 1 0 -100.000000,0 z"
         id="path42" />
    </g>
    <g
       id="node-KnowledgeNode[inputTag=Fact[predicateName=P2,arguments=[A]],outputTags=[Fact[predicateName=P4,arguments=[A]], Fact[predicateName=P5,arguments=[A]]]]">
      <path
         style="fill:#4e79a7;fill-opacity:1.000000;fill-rule:nonzero;"
         transform="translate(654.061801,156.700361)"
         d=" m -50.000000 0 a 50.000000,50.000000 0 1 0 100.000000,0 50.000000,50.000000 0 1 0 -100.000000,0 z"
         id="path45" />
    </g>
    <g
       id="node-KnowledgeNode[inputTag=Fact[predicateName=P3,arguments=[A]],outputTags=[Fact[predicateName=P7,arguments=[A]], Fact[predicateName=P6,arguments=[A]]]]">
      <path
         style="fill:#4e79a7;fill-opacity:1.000000;fill-rule:nonzero;"
         transform="translate(231.473649,808.666760)"
         d=" m -50.000000 0 a 50.000000,50.000000 0 1 0 100.000000,0 50.000000,50.000000 0 1 0 -100.000000,0 z"
         id="path48" />
    </g>
    <g
       id="node-Fact[predicateName=P2,arguments=[A]]">
      <path
         style="fill:#b07aa1;fill-opacity:1.000000;fill-rule:nonzero;"
         transform="translate(487.822363,308.630265)"
         d=" m -25.000000 0 a 25.000000,25.000000 0 1 0 50.000000,0 25.000000,25.000000 0 1 0 -50.000000,0 z"
         id="path51" />
    </g>
    <g
       id="node-Fact[predicateName=P1,arguments=[A]]">
      <path
         style="fill:#b07aa1;fill-opacity:1.000000;fill-rule:nonzero;"
         transform="translate(30.000000,421.106210)"
         d=" m -25.000000 0 a 25.000000,25.000000 0 1 0 50.000000,0 25.000000,25.000000 0 1 0 -50.000000,0 z"
         id="path54" />
    </g>
    <g
       id="node-Fact[predicateName=P4,arguments=[A]]">
      <path
         style="fill:#b07aa1;fill-opacity:1.000000;fill-rule:nonzero;"
         transform="translate(870.238666,30.000000)"
         d=" m -25.000000 0 a 25.000000,25.000000 0 1 0 50.000000,0 25.000000,25.000000 0 1 0 -50.000000,0 z"
         id="path57" />
    </g>
    <g
       id="node-Fact[predicateName=P3,arguments=[A]]">
      <path
         style="fill:#b07aa1;fill-opacity:1.000000;fill-rule:nonzero;"
         transform="translate(276.806799,639.529925)"
         d=" m -25.000000 0 a 25.000000,25.000000 0 1 0 50.000000,0 25.000000,25.000000 0 1 0 -50.000000,0 z"
         id="path60" />
    </g>
    <g
       id="node-Fact[predicateName=P6,arguments=[A]]">
      <path
         style="fill:#b07aa1;fill-opacity:1.000000;fill-rule:nonzero;"
         transform="translate(188.193417,970.000000)"
         d=" m -25.000000 0 a 25.000000,25.000000 0 1 0 50.000000,0 25.000000,25.000000 0 1 0 -50.000000,0 z"
         id="path63" />
    </g>
    <g
       id="node-Fact[predicateName=P5,arguments=[A]]">
      <path
         style="fill:#b07aa1;fill-opacity:1.000000;fill-rule:nonzero;"
         transform="translate(970.000000,223.216600)"
         d=" m -25.000000 0 a 25.000000,25.000000 0 1 0 50.000000,0 25.000000,25.000000 0 1 0 -50.000000,0 z"
         id="path66" />
    </g>
  </g>
</svg>
