<?xml version="1.0" ?>
<svg xmlns="http://www.w3.org/2000/svg" xmlns:dc="http://purl.org/dc/elements/1.1/" xmlns:cc="http://creativecommons.org/ns#" xmlns:rdf="http://www.w3.org/1999/02/22-rdf-syntax-ns#" xmlns:svg="http://www.w3.org/2000/svg" viewBox="0.000000 0.000000 1000.000000 1000.000000" id="graph" version="1.1">
  <defs></defs>
  <g id="graph-misc">
    <g id="graph-background">
      <path style="fill:#ffffff;fill-opacity:1.000000;fill-rule:nonzero;" d=" M 0.000000 0.000000 L 1000.000000 0.000000 L 1000.000000 1000.000000 L 0.000000 1000.000000 Z"></path></g></g>
  <g id="elements">
    <g id="graph-background">
      <path style="fill:#ffffff;fill-opacity:1.000000;fill-rule:nonzero;" d=" M 0.000000 0.000000 L 1000.000000 0.000000 L 1000.000000 1000.000000 L 0.000000 1000.000000 Z"></path></g>
    <g id="egde-KnowledgeNode[inputTag=Fact[predicateName=P2,arguments=[A]],outputTags=[Fact[predicateName=P4,arguments=[A]], Fact[predicateName=P5,arguments=[A]]]]Fact[predicateName=P4,arguments=[A]]">
      <path style="stroke:#000000;stroke-width:1.000000px;" d=" M 678.648417 140.228719 L 970.000000 226.954575"></path></g>
    <g id="egde-KnowledgeNode[inputTag=Fact[predicateName=P2,arguments=[A]],outputTags=[Fact[predicateName=P4,arguments=[A]], Fact[predicateName=P5,arguments=[A]]]]Fact[predicateName=P5,arguments=[A]]">
      <path style="stroke:#000000;stroke-width:1.000000px;" d=" M 678.648417 140.228719 L 933.026642 30.000000"></path></g>
    <g id="egde-KnowledgeNode[inputTag=Fact[predicateName=P1,arguments=[A]],outputTags=[Fact[predicateName=P3,arguments=[A]], Fact[predicateName=P2,arguments=[A]]]]Fact[predicateName=P2,arguments=[A]]">
      <path style="stroke:#000000;stroke-width:1.000000px;" d=" M 359.562517 454.123448 L 485.572737 287.588330"></path></g>
    <g id="egde-KnowledgeNode[inputTag=Fact[predicateName=P3,arguments=[A]],outputTags=[Fact[predicateName=P7,arguments=[A]], Fact[predicateName=P6,arguments=[A]]]]Fact[predicateName=P7,arguments=[A]]">
      <path style="stroke:#000000;stroke-width:1.000000px;" d=" M 311.153010 804.459205 L 637.129954 851.215484"></path></g>
    <g id="egde-Fact[predicateName=P2,arguments=[A]]KnowledgeNode[inputTag=Fact[predicateName=P2,arguments=[A]],outputTags=[Fact[predicateName=P4,arguments=[A]], Fact[predicateName=P5,arguments=[A]]]]">
      <path style="stroke:#000000;stroke-width:1.000000px;" d=" M 485.572737 287.588330 L 678.648417 140.228719"></path></g>
    <g id="egde-KnowledgeNode[inputTag=Fact[predicateName=P1,arguments=[A]],outputTags=[Fact[predicateName=P3,arguments=[A]], Fact[predicateName=P2,arguments=[A]]]]Fact[predicateName=P3,arguments=[A]]">
      <path style="stroke:#000000;stroke-width:1.000000px;" d=" M 359.562517 454.123448 L 316.831516 630.084231"></path></g>
    <g id="egde-Fact[predicateName=P1,arguments=[A]]KnowledgeNode[inputTag=Fact[predicateName=P1,arguments=[A]],outputTags=[Fact[predicateName=P3,arguments=[A]], Fact[predicateName=P2,arguments=[A]]]]">
      <path style="stroke:#000000;stroke-width:1.000000px;" d=" M 30.000000 415.541086 L 359.562517 454.123448"></path></g>
    <g id="egde-KnowledgeNode[inputTag=Fact[predicateName=P3,arguments=[A]],outputTags=[Fact[predicateName=P7,arguments=[A]], Fact[predicateName=P6,arguments=[A]]]]Fact[predicateName=P6,arguments=[A]]">
      <path style="stroke:#000000;stroke-width:1.000000px;" d=" M 311.153010 804.459205 L 277.701778 970.000000"></path></g>
    <g id="egde-Fact[predicateName=P3,arguments=[A]]KnowledgeNode[inputTag=Fact[predicateName=P3,arguments=[A]],outputTags=[Fact[predicateName=P7,arguments=[A]], Fact[predicateName=P6,arguments=[A]]]]">
      <path style="stroke:#000000;stroke-width:1.000000px;" d=" M 316.831516 630.084231 L 311.153010 804.459205"></path></g>
    <g id="node-Fact[predicateName=P7,arguments=[A]]">
      <path style="fill:#b07aa1;fill-opacity:1.000000;fill-rule:nonzero;" transform="translate(637.129954,851.215484)" d=" m -25.000000 0 a 25.000000,25.000000 0 1 0 50.000000,0 25.000000,25.000000 0 1 0 -50.000000,0 z"></path></g>
    <g id="node-Fact[predicateName=P2,arguments=[A]]">
      <path style="fill:#b07aa1;fill-opacity:1.000000;fill-rule:nonzero;" transform="translate(485.572737,287.588330)" d=" m -25.000000 0 a 25.000000,25.000000 0 1 0 50.000000,0 25.000000,25.000000 0 1 0 -50.000000,0 z"></path></g>
    <g id="node-Fact[predicateName=P4,arguments=[A]]">
      <path style="fill:#b07aa1;fill-opacity:1.000000;fill-rule:nonzero;" transform="translate(970.000000,226.954575)" d=" m -25.000000 0 a 25.000000,25.000000 0 1 0 50.000000,0 25.000000,25.000000 0 1 0 -50.000000,0 z"></path></g>
    <g id="node-Fact[predicateName=P3,arguments=[A]]">
      <path style="fill:#b07aa1;fill-opacity:1.000000;fill-rule:nonzero;" transform="translate(316.831516,630.084231)" d=" m -25.000000 0 a 25.000000,25.000000 0 1 0 50.000000,0 25.000000,25.000000 0 1 0 -50.000000,0 z"></path></g>
    <g id="node-Fact[predicateName=P6,arguments=[A]]">
      <path style="fill:#b07aa1;fill-opacity:1.000000;fill-rule:nonzero;" transform="translate(277.701778,970.000000)" d=" m -25.000000 0 a 25.000000,25.000000 0 1 0 50.000000,0 25.000000,25.000000 0 1 0 -50.000000,0 z"></path></g>
    <g id="node-Fact[predicateName=P5,arguments=[A]]">
      <path style="fill:#b07aa1;fill-opacity:1.000000;fill-rule:nonzero;" transform="translate(933.026642,30.000000)" d=" m -25.000000 0 a 25.000000,25.000000 0 1 0 50.000000,0 25.000000,25.000000 0 1 0 -50.000000,0 z"></path></g>
    <g id="node-KnowledgeNode[inputTag=Fact[predicateName=P1,arguments=[A]],outputTags=[Fact[predicateName=P3,arguments=[A]], Fact[predicateName=P2,arguments=[A]]]]">
      <path style="fill:#4e79a7;fill-opacity:1.000000;fill-rule:nonzero;" transform="translate(359.562517,454.123448)" d=" m -50.000000 0 a 50.000000,50.000000 0 1 0 100.000000,0 50.000000,50.000000 0 1 0 -100.000000,0 z"></path></g>
    <g id="node-KnowledgeNode[inputTag=Fact[predicateName=P2,arguments=[A]],outputTags=[Fact[predicateName=P4,arguments=[A]], Fact[predicateName=P5,arguments=[A]]]]">
      <path style="fill:#4e79a7;fill-opacity:1.000000;fill-rule:nonzero;" transform="translate(678.648417,140.228719)" d=" m -50.000000 0 a 50.000000,50.000000 0 1 0 100.000000,0 50.000000,50.000000 0 1 0 -100.000000,0 z"></path></g>
    <g id="node-KnowledgeNode[inputTag=Fact[predicateName=P3,arguments=[A]],outputTags=[Fact[predicateName=P7,arguments=[A]], Fact[predicateName=P6,arguments=[A]]]]">
      <path style="fill:#4e79a7;fill-opacity:1.000000;fill-rule:nonzero;" transform="translate(311.153010,804.459205)" d=" m -50.000000 0 a 50.000000,50.000000 0 1 0 100.000000,0 50.000000,50.000000 0 1 0 -100.000000,0 z"></path></g>
    <g id="node-Fact[predicateName=P1,arguments=[A]]">
      <path style="fill:#e15759;fill-opacity:1.000000;fill-rule:nonzero;" transform="translate(30.000000,415.541086)" d=" m -25.000000 0 a 25.000000,25.000000 0 1 0 50.000000,0 25.000000,25.000000 0 1 0 -50.000000,0 z"></path></g></g></svg>