<?xml version="1.0" ?>
<svg xmlns="http://www.w3.org/2000/svg" xmlns:dc="http://purl.org/dc/elements/1.1/" xmlns:cc="http://creativecommons.org/ns#" xmlns:rdf="http://www.w3.org/1999/02/22-rdf-syntax-ns#" xmlns:svg="http://www.w3.org/2000/svg" viewBox="0.000000 0.000000 1000.000000 1000.000000" id="graph" version="1.1">
  <defs></defs>
  <g id="graph-misc">
    <g id="graph-background">
      <path style="fill:#ffffff;fill-opacity:1.000000;fill-rule:nonzero;" d=" M 0.000000 0.000000 L 1000.000000 0.000000 L 1000.000000 1000.000000 L 0.000000 1000.000000 Z"></path></g></g>
  <g id="elements">
    <g id="graph-background">
      <path style="fill:#ffffff;fill-opacity:1.000000;fill-rule:nonzero;" d=" M 0.000000 0.000000 L 1000.000000 0.000000 L 1000.000000 1000.000000 L 0.000000 1000.000000 Z"></path></g>
    <g id="egde-KnowledgeNode[inputTag=Fact[predicateName=P2,arguments=[A]],outputTags=[Fact[predicateName=P4,arguments=[A]], Fact[predicateName=P5,arguments=[A]]]]Fact[predicateName=P4,arguments=[A]]">
      <path style="stroke:#000000;stroke-width:1.000000px;" d=" M 850.419328 821.069338 L 941.305003 970.000000"></path></g>
    <g id="egde-KnowledgeNode[inputTag=Fact[predicateName=P2,arguments=[A]],outputTags=[Fact[predicateName=P4,arguments=[A]], Fact[predicateName=P5,arguments=[A]]]]Fact[predicateName=P5,arguments=[A]]">
      <path style="stroke:#000000;stroke-width:1.000000px;" d=" M 850.419328 821.069338 L 970.000000 713.786561"></path></g>
    <g id="egde-KnowledgeNode[inputTag=Fact[predicateName=P1,arguments=[A]],outputTags=[Fact[predicateName=P3,arguments=[A]], Fact[predicateName=P2,arguments=[A]]]]Fact[predicateName=P2,arguments=[A]]">
      <path style="stroke:#000000;stroke-width:1.000000px;" d=" M 606.524055 619.475251 L 707.147521 771.194744"></path></g>
    <g id="egde-KnowledgeNode[inputTag=Fact[predicateName=P3,arguments=[A]],outputTags=[Fact[predicateName=P7,arguments=[A]], Fact[predicateName=P6,arguments=[A]]]]Fact[predicateName=P7,arguments=[A]]">
      <path style="stroke:#000000;stroke-width:1.000000px;" d=" M 674.455670 223.171468 L 812.016357 170.040986"></path></g>
    <g id="egde-Fact[predicateName=P2,arguments=[A]]KnowledgeNode[inputTag=Fact[predicateName=P2,arguments=[A]],outputTags=[Fact[predicateName=P4,arguments=[A]], Fact[predicateName=P5,arguments=[A]]]]">
      <path style="stroke:#000000;stroke-width:1.000000px;" d=" M 707.147521 771.194744 L 850.419328 821.069338"></path></g>
    <g id="egde-KnowledgeNode[inputTag=Fact[predicateName=P1,arguments=[A]],outputTags=[Fact[predicateName=P3,arguments=[A]], Fact[predicateName=P2,arguments=[A]]]]Fact[predicateName=P3,arguments=[A]]">
      <path style="stroke:#000000;stroke-width:1.000000px;" d=" M 606.524055 619.475251 L 621.546066 413.627516"></path></g>
    <g id="egde-Fact[predicateName=P1,arguments=[A]]KnowledgeNode[inputTag=Fact[predicateName=P1,arguments=[A]],outputTags=[Fact[predicateName=P3,arguments=[A]], Fact[predicateName=P2,arguments=[A]]]]">
      <path style="stroke:#000000;stroke-width:1.000000px;" d=" M 466.455424 653.033581 L 606.524055 619.475251"></path></g>
    <g id="egde-KnowledgeNode[inputTag=Fact[predicateName=P3,arguments=[A]],outputTags=[Fact[predicateName=P7,arguments=[A]], Fact[predicateName=P6,arguments=[A]]]]Fact[predicateName=P6,arguments=[A]]">
      <path style="stroke:#000000;stroke-width:1.000000px;" d=" M 674.455670 223.171468 L 656.835580 30.000000"></path></g>
    <g id="egde-Fact[predicateName=P3,arguments=[A]]KnowledgeNode[inputTag=Fact[predicateName=P3,arguments=[A]],outputTags=[Fact[predicateName=P7,arguments=[A]], Fact[predicateName=P6,arguments=[A]]]]">
      <path style="stroke:#000000;stroke-width:1.000000px;" d=" M 621.546066 413.627516 L 674.455670 223.171468"></path></g>
    <g id="node-Fact[predicateName=P1,arguments=[A]]">
      <path style="fill:#e15759;fill-opacity:1.000000;fill-rule:nonzero;" transform="translate(466.455424,653.033581)" d=" m -10.000000 0 a 10.000000,10.000000 0 1 0 20.000000,0 10.000000,10.000000 0 1 0 -20.000000,0 z"></path></g>
    <g id="node-Fact[predicateName=P7,arguments=[A]]">
      <path style="fill:#b07aa1;fill-opacity:1.000000;fill-rule:nonzero;" transform="translate(812.016357,170.040986)" d=" m -10.000000 0 a 10.000000,10.000000 0 1 0 20.000000,0 10.000000,10.000000 0 1 0 -20.000000,0 z"></path></g>
    <g id="node-Fact[predicateName=P2,arguments=[A]]">
      <path style="fill:#b07aa1;fill-opacity:1.000000;fill-rule:nonzero;" transform="translate(707.147521,771.194744)" d=" m -10.000000 0 a 10.000000,10.000000 0 1 0 20.000000,0 10.000000,10.000000 0 1 0 -20.000000,0 z"></path></g>
    <g id="node-Fact[predicateName=P4,arguments=[A]]">
      <path style="fill:#b07aa1;fill-opacity:1.000000;fill-rule:nonzero;" transform="translate(941.305003,970.000000)" d=" m -10.000000 0 a 10.000000,10.000000 0 1 0 20.000000,0 10.000000,10.000000 0 1 0 -20.000000,0 z"></path></g>
    <g id="node-Fact[predicateName=P3,arguments=[A]]">
      <path style="fill:#b07aa1;fill-opacity:1.000000;fill-rule:nonzero;" transform="translate(621.546066,413.627516)" d=" m -10.000000 0 a 10.000000,10.000000 0 1 0 20.000000,0 10.000000,10.000000 0 1 0 -20.000000,0 z"></path></g>
    <g id="node-Fact[predicateName=P6,arguments=[A]]">
      <path style="fill:#b07aa1;fill-opacity:1.000000;fill-rule:nonzero;" transform="translate(656.835580,30.000000)" d=" m -10.000000 0 a 10.000000,10.000000 0 1 0 20.000000,0 10.000000,10.000000 0 1 0 -20.000000,0 z"></path></g>
    <g id="node-Fact[predicateName=P5,arguments=[A]]">
      <path style="fill:#b07aa1;fill-opacity:1.000000;fill-rule:nonzero;" transform="translate(970.000000,713.786561)" d=" m -10.000000 0 a 10.000000,10.000000 0 1 0 20.000000,0 10.000000,10.000000 0 1 0 -20.000000,0 z"></path></g>
    <g id="node-reset">
      <path style="fill:#59a14f;fill-opacity:1.000000;fill-rule:nonzero;" transform="translate(30.000000,511.889272)" d=" m -30.000000 -10.000000 h 60.000000 v 20.000000 h -60.000000 z"></path></g>
    <g id="node-KnowledgeNode[inputTag=Fact[predicateName=P1,arguments=[A]],outputTags=[Fact[predicateName=P3,arguments=[A]], Fact[predicateName=P2,arguments=[A]]]]">
      <path style="fill:#4e79a7;fill-opacity:1.000000;fill-rule:nonzero;" transform="translate(606.524055,619.475251)" d=" m -20.000000 0 a 20.000000,20.000000 0 1 0 40.000000,0 20.000000,20.000000 0 1 0 -40.000000,0 z"></path></g>
    <g id="node-KnowledgeNode[inputTag=Fact[predicateName=P2,arguments=[A]],outputTags=[Fact[predicateName=P4,arguments=[A]], Fact[predicateName=P5,arguments=[A]]]]">
      <path style="fill:#4e79a7;fill-opacity:1.000000;fill-rule:nonzero;" transform="translate(850.419328,821.069338)" d=" m -20.000000 0 a 20.000000,20.000000 0 1 0 40.000000,0 20.000000,20.000000 0 1 0 -40.000000,0 z"></path></g>
    <g id="node-KnowledgeNode[inputTag=Fact[predicateName=P3,arguments=[A]],outputTags=[Fact[predicateName=P7,arguments=[A]], Fact[predicateName=P6,arguments=[A]]]]">
      <path style="fill:#4e79a7;fill-opacity:1.000000;fill-rule:nonzero;" transform="translate(674.455670,223.171468)" d=" m -20.000000 0 a 20.000000,20.000000 0 1 0 40.000000,0 20.000000,20.000000 0 1 0 -40.000000,0 z"></path></g></g></svg>