<?xml version="1.0" ?>
<svg xmlns="http://www.w3.org/2000/svg" xmlns:dc="http://purl.org/dc/elements/1.1/" xmlns:cc="http://creativecommons.org/ns#" xmlns:rdf="http://www.w3.org/1999/02/22-rdf-syntax-ns#" xmlns:svg="http://www.w3.org/2000/svg" viewBox="0.000000 0.000000 1000.000000 1000.000000" id="graph" version="1.1">
  <defs></defs>
  <g id="graph-misc">
    <g id="graph-background">
      <path style="fill:#ffffff;fill-opacity:1.000000;fill-rule:nonzero;" d=" M 0.000000 0.000000 L 1000.000000 0.000000 L 1000.000000 1000.000000 L 0.000000 1000.000000 Z"></path></g></g>
  <g id="elements">
    <g id="graph-background">
      <path style="fill:#ffffff;fill-opacity:1.000000;fill-rule:nonzero;" d=" M 0.000000 0.000000 L 1000.000000 0.000000 L 1000.000000 1000.000000 L 0.000000 1000.000000 Z"></path></g>
    <g id="egde-KnowledgeNode[inputTag=Fact[predicateName=P2,arguments=[A]],outputTags=[Fact[predicateName=P4,arguments=[A]], Fact[predicateName=P5,arguments=[A]]]]Fact[predicateName=P4,arguments=[A]]">
      <path style="stroke:#000000;stroke-width:1.000000px;" d=" M 654.061801 156.700361 L 870.238666 30.000000"></path></g>
    <g id="egde-KnowledgeNode[inputTag=Fact[predicateName=P2,arguments=[A]],outputTags=[Fact[predicateName=P4,arguments=[A]], Fact[predicateName=P5,arguments=[A]]]]Fact[predicateName=P5,arguments=[A]]">
      <path style="stroke:#000000;stroke-width:1.000000px;" d=" M 654.061801 156.700361 L 970.000000 223.216600"></path></g>
    <g id="egde-KnowledgeNode[inputTag=Fact[predicateName=P1,arguments=[A]],outputTags=[Fact[predicateName=P3,arguments=[A]], Fact[predicateName=P2,arguments=[A]]]]Fact[predicateName=P2,arguments=[A]]">
      <path style="stroke:#000000;stroke-width:1.000000px;" d=" M 358.168278 470.810249 L 487.822363 308.630265"></path></g>
    <g id="egde-KnowledgeNode[inputTag=Fact[predicateName=P3,arguments=[A]],outputTags=[Fact[predicateName=P7,arguments=[A]], Fact[predicateName=P6,arguments=[A]]]]Fact[predicateName=P7,arguments=[A]]">
      <path style="stroke:#000000;stroke-width:1.000000px;" d=" M 231.473649 808.666760 L 559.276372 859.988656"></path></g>
    <g id="egde-Fact[predicateName=P2,arguments=[A]]KnowledgeNode[inputTag=Fact[predicateName=P2,arguments=[A]],outputTags=[Fact[predicateName=P4,arguments=[A]], Fact[predicateName=P5,arguments=[A]]]]">
      <path style="stroke:#000000;stroke-width:1.000000px;" d=" M 487.822363 308.630265 L 654.061801 156.700361"></path></g>
    <g id="egde-KnowledgeNode[inputTag=Fact[predicateName=P1,arguments=[A]],outputTags=[Fact[predicateName=P3,arguments=[A]], Fact[predicateName=P2,arguments=[A]]]]Fact[predicateName=P3,arguments=[A]]">
      <path style="stroke:#000000;stroke-width:1.000000px;" d=" M 358.168278 470.810249 L 276.806799 639.529925"></path></g>
    <g id="egde-Fact[predicateName=P1,arguments=[A]]KnowledgeNode[inputTag=Fact[predicateName=P1,arguments=[A]],outputTags=[Fact[predicateName=P3,arguments=[A]], Fact[predicateName=P2,arguments=[A]]]]">
      <path style="stroke:#000000;stroke-width:1.000000px;" d=" M 30.000000 421.106210 L 358.168278 470.810249"></path></g>
    <g id="egde-KnowledgeNode[inputTag=Fact[predicateName=P3,arguments=[A]],outputTags=[Fact[predicateName=P7,arguments=[A]], Fact[predicateName=P6,arguments=[A]]]]Fact[predicateName=P6,arguments=[A]]">
      <path style="stroke:#000000;stroke-width:1.000000px;" d=" M 231.473649 808.666760 L 188.193417 970.000000"></path></g>
    <g id="egde-Fact[predicateName=P3,arguments=[A]]KnowledgeNode[inputTag=Fact[predicateName=P3,arguments=[A]],outputTags=[Fact[predicateName=P7,arguments=[A]], Fact[predicateName=P6,arguments=[A]]]]">
      <path style="stroke:#000000;stroke-width:1.000000px;" d=" M 276.806799 639.529925 L 231.473649 808.666760"></path></g>
    <g id="node-KnowledgeNode[inputTag=Fact[predicateName=P1,arguments=[A]],outputTags=[Fact[predicateName=P3,arguments=[A]], Fact[predicateName=P2,arguments=[A]]]]">
      <path style="fill:#4e79a7;fill-opacity:1.000000;fill-rule:nonzero;" transform="translate(358.168278,470.810249)" d=" m -50.000000 0 a 50.000000,50.000000 0 1 0 100.000000,0 50.000000,50.000000 0 1 0 -100.000000,0 z"></path></g>
    <g id="node-KnowledgeNode[inputTag=Fact[predicateName=P2,arguments=[A]],outputTags=[Fact[predicateName=P4,arguments=[A]], Fact[predicateName=P5,arguments=[A]]]]">
      <path style="fill:#4e79a7;fill-opacity:1.000000;fill-rule:nonzero;" transform="translate(654.061801,156.700361)" d=" m -50.000000 0 a 50.000000,50.000000 0 1 0 100.000000,0 50.000000,50.000000 0 1 0 -100.000000,0 z"></path></g>
    <g id="node-KnowledgeNode[inputTag=Fact[predicateName=P3,arguments=[A]],outputTags=[Fact[predicateName=P7,arguments=[A]], Fact[predicateName=P6,arguments=[A]]]]">
      <path style="fill:#4e79a7;fill-opacity:1.000000;fill-rule:nonzero;" transform="translate(231.473649,808.666760)" d=" m -50.000000 0 a 50.000000,50.000000 0 1 0 100.000000,0 50.000000,50.000000 0 1 0 -100.000000,0 z"></path></g>
    <g id="node-Fact[predicateName=P2,arguments=[A]]">
      <path style="fill:#b07aa1;fill-opacity:1.000000;fill-rule:nonzero;" transform="translate(487.822363,308.630265)" d=" m -25.000000 0 a 25.000000,25.000000 0 1 0 50.000000,0 25.000000,25.000000 0 1 0 -50.000000,0 z"></path></g>
    <g id="node-Fact[predicateName=P1,arguments=[A]]">
      <path style="fill:#b07aa1;fill-opacity:1.000000;fill-rule:nonzero;" transform="translate(30.000000,421.106210)" d=" m -25.000000 0 a 25.000000,25.000000 0 1 0 50.000000,0 25.000000,25.000000 0 1 0 -50.000000,0 z"></path></g>
    <g id="node-Fact[predicateName=P4,arguments=[A]]">
      <path style="fill:#b07aa1;fill-opacity:1.000000;fill-rule:nonzero;" transform="translate(870.238666,30.000000)" d=" m -25.000000 0 a 25.000000,25.000000 0 1 0 50.000000,0 25.000000,25.000000 0 1 0 -50.000000,0 z"></path></g>
    <g id="node-Fact[predicateName=P6,arguments=[A]]">
      <path style="fill:#b07aa1;fill-opacity:1.000000;fill-rule:nonzero;" transform="translate(188.193417,970.000000)" d=" m -25.000000 0 a 25.000000,25.000000 0 1 0 50.000000,0 25.000000,25.000000 0 1 0 -50.000000,0 z"></path></g>
    <g id="node-Fact[predicateName=P5,arguments=[A]]">
      <path style="fill:#b07aa1;fill-opacity:1.000000;fill-rule:nonzero;" transform="translate(970.000000,223.216600)" d=" m -25.000000 0 a 25.000000,25.000000 0 1 0 50.000000,0 25.000000,25.000000 0 1 0 -50.000000,0 z"></path></g>
    <g id="node-Fact[predicateName=P7,arguments=[A]]">
      <path style="fill:#e15759;fill-opacity:1.000000;fill-rule:nonzero;" transform="translate(559.276372,859.988656)" d=" m -25.000000 0 a 25.000000,25.000000 0 1 0 50.000000,0 25.000000,25.000000 0 1 0 -50.000000,0 z"></path></g>
    <g id="node-Fact[predicateName=P3,arguments=[A]]">
      <path style="fill:#e15759;fill-opacity:1.000000;fill-rule:nonzero;" transform="translate(276.806799,639.529925)" d=" m -25.000000 0 a 25.000000,25.000000 0 1 0 50.000000,0 25.000000,25.000000 0 1 0 -50.000000,0 z"></path></g></g></svg>